# File created by Blade
# Date/Time:  Wed Apr 08 17:12:12 2015
# Frame Rate: 120.000 fps
#------------------------------------------------------
:FULLY-SPECIFIED
:DEGREES
1152
root 6.669185 38.049858 5.664730 147.724741 -32.687717 -133.040757
Spine 44.900352 -1.056213 3.025508
Head -20.689574 21.656750 19.835329
LeftShoulder -6.821613 15.767556 24.003394
LeftArm 12.922696 32.238871 -74.627984
LeftForeArm 32.409012 0.000000 38.822071
LeftHand -7.753834 -0.000000 -17.334338
LeftHandThumb1 -26.253704 0.000000 33.147579
RightShoulder -42.433775 -53.611060 27.700562
RightArm 37.261443 -20.590230 68.191746
RightForeArm 43.567031 -0.000000 31.762394
RightHand -7.968121 -0.000000 5.180657
RightHandThumb1 -24.326973 -0.000000 -32.862282
LeftUpLeg -5.328930 53.197530 35.119950
LeftLeg 22.620890 -0.000000 -0.000000
LeftFoot -19.952490 6.027274 -15.274460
LeftToeBase 4.682930 -0.000000 -0.000000
RightUpLeg 42.442241 12.727084 -30.045509
RightLeg 139.542679 -0.000000 -0.000000
RightFoot 37.776942 12.065931 15.152277
RightToeBase -13.747805 -0.000000 0.000000
1153
root 6.667505 38.044584 5.670670 147.908579 -32.596414 -133.120438
Spine 44.821136 -0.862162 3.012065
Head -20.773700 21.719456 19.844444
LeftShoulder -6.859010 15.782189 23.975655
LeftArm 12.839542 32.419556 -74.641667
LeftForeArm 32.250971 -0.000000 38.962358
LeftHand -7.732276 -0.000000 -17.216127
LeftHandThumb1 -26.253704 0.000000 33.147579
RightShoulder -42.433770 -53.614611 27.751513
RightArm 37.228254 -20.789811 68.180482
RightForeArm 43.851701 -0.000000 31.699460
RightHand -7.943629 0.000000 5.104462
RightHandThumb1 -24.326973 -0.000000 -32.862282
LeftUpLeg -5.431554 53.341581 35.042935
LeftLeg 22.682223 -0.000000 -0.000000
LeftFoot -20.009944 6.009484 -15.325151
LeftToeBase 4.734841 -0.000000 -0.000000
RightUpLeg 42.471803 12.666261 -30.178867
RightLeg 139.520389 -0.000000 -0.000000
RightFoot 37.775565 12.088894 15.227336
RightToeBase -13.952269 -0.000000 0.000000
1154
root 6.669239 38.040579 5.676391 148.105643 -32.540501 -133.140737
Spine 44.686770 -0.732452 3.011071
Head -20.845084 21.783717 19.835969
LeftShoulder -6.901688 15.842194 23.925570
LeftArm 12.814075 32.605090 -74.614389
LeftForeArm 32.159997 -0.000000 39.055451
LeftHand -7.779065 -0.000000 -17.285079
LeftHandThumb1 -26.253704 0.000000 33.147579
RightShoulder -42.447015 -53.634994 27.833159
RightArm 37.213839 -20.983910 68.134707
RightForeArm 44.155673 -0.000000 31.657266
RightHand -7.904357 -0.000000 4.833142
RightHandThumb1 -24.326973 -0.000000 -32.862282
LeftUpLeg -5.665514 53.477941 34.884203
LeftLeg 22.733878 -0.000000 -0.000000
LeftFoot -20.054808 6.023225 -15.320089
LeftToeBase 4.746164 -0.000000 -0.000000
RightUpLeg 42.491279 12.504253 -30.280486
RightLeg 139.517683 -0.000000 -0.000000
RightFoot 37.690249 12.026987 15.279502
RightToeBase -14.036146 -0.000000 0.000000
1155
root 6.683901 38.035531 5.693357 148.495522 -32.536998 -133.080986
Spine 44.285955 -0.681671 3.045766
Head -20.885450 21.847546 19.826802
LeftShoulder -6.946325 15.926327 23.830387
LeftArm 12.796839 32.799701 -74.561420
LeftForeArm 32.174697 -0.000000 39.096436
LeftHand -8.036038 -0.000000 -17.486947
LeftHandThumb1 -26.253704 0.000000 33.147579
RightShoulder -42.493814 -53.679796 27.955906
RightArm 37.211640 -21.175360 68.046592
RightForeArm 44.379530 -0.000000 31.649685
RightHand -7.944142 -0.000000 4.652068
RightHandThumb1 -24.326973 -0.000000 -32.862282
LeftUpLeg -6.405385 53.632201 34.358505
LeftLeg 22.813587 -0.000000 -0.000000
LeftFoot -20.121826 6.144467 -15.263367
LeftToeBase 4.789016 -0.000000 -0.000000
RightUpLeg 42.319599 12.165833 -30.384420
RightLeg 139.568715 -0.000000 -0.000000
RightFoot 37.683745 11.881096 15.408024
RightToeBase -14.417664 -0.000000 0.000000
1156
root 6.700823 38.027653 5.712199 148.946395 -32.520805 -133.014839
Spine 43.798702 -0.652079 3.078324
Head -20.893453 21.911542 19.810758
LeftShoulder -6.998899 16.010202 23.751793
LeftArm 12.717964 33.051732 -74.552704
LeftForeArm 32.372642 -0.000000 39.093755
LeftHand -7.548314 -0.000000 -17.506795
LeftHandThumb1 -26.253704 0.000000 33.147579
RightShoulder -42.516749 -53.745151 28.030882
RightArm 37.223573 -21.383194 67.950033
RightForeArm 44.655991 0.000000 31.639293
RightHand -7.912774 -0.000000 4.491749
RightHandThumb1 -24.326973 -0.000000 -32.862282
LeftUpLeg -7.254324 53.759790 33.772182
LeftLeg 22.947304 -0.000000 -0.000000
LeftFoot -20.236835 6.253058 -15.313020
LeftToeBase 4.814482 -0.000000 -0.000000
RightUpLeg 42.078831 11.819151 -30.474452
RightLeg 139.656270 -0.000000 -0.000000
RightFoot 37.645528 11.736615 15.545837
RightToeBase -14.200656 -0.000000 0.000000
1157
root 6.706311 38.024056 5.724399 149.185957 -32.528049 -132.990247
Spine 43.591913 -0.614144 3.070841
Head -20.960806 21.968435 19.768724
LeftShoulder -7.023172 16.009810 23.716634
LeftArm 12.595091 33.286383 -74.582220
LeftForeArm 32.478232 -0.000000 39.136818
LeftHand -7.470792 0.000000 -17.251255
LeftHandThumb1 -26.253704 0.000000 33.147579
RightShoulder -42.567173 -53.751646 28.109291
RightArm 37.282630 -21.628935 67.794583
RightForeArm 44.864631 -0.000000 31.578121
RightHand -7.818733 -0.000000 4.472984
RightHandThumb1 -24.326973 -0.000000 -32.862282
LeftUpLeg -7.701879 53.820692 33.430429
LeftLeg 22.993693 -0.000000 -0.000000
LeftFoot -20.282206 6.345520 -15.294481
LeftToeBase 4.831122 -0.000000 -0.000000
RightUpLeg 42.061006 11.587943 -30.524899
RightLeg 139.706578 -0.000000 -0.000000
RightFoot 37.659218 11.663634 15.723978
RightToeBase -14.140638 -0.000000 0.000000
1158
root 6.712166 38.021882 5.738877 149.438283 -32.543595 -132.967013
Spine 43.379513 -0.585698 3.060735
Head -21.044836 22.016485 19.691776
LeftShoulder -7.053328 16.033831 23.650317
LeftArm 12.550777 33.544987 -74.549009
LeftForeArm 32.403526 -0.000000 39.106480
LeftHand -7.411651 -0.000000 -17.168962
LeftHandThumb1 -26.253704 0.000000 33.147579
RightShoulder -42.658076 -53.759823 28.216793
RightArm 37.376241 -21.859062 67.635548
RightForeArm 45.293386 -0.000000 31.623094
RightHand -8.114876 -0.000000 4.032449
RightHandThumb1 -24.326973 -0.000000 -32.862282
LeftUpLeg -8.185995 53.891412 33.044561
LeftLeg 23.023822 -0.000000 -0.000000
LeftFoot -20.305648 6.481718 -15.216650
LeftToeBase 4.837544 -0.000000 -0.000000
RightUpLeg 42.018731 11.334060 -30.583354
RightLeg 139.772651 -0.000000 -0.000000
RightFoot 37.722988 11.677306 15.791622
RightToeBase -14.308842 -0.000000 0.000000
1159
root 6.718742 38.018918 5.754384 149.703977 -32.574405 -132.951941
Spine 43.149927 -0.581971 3.019396
Head -21.078667 22.079644 19.625382
LeftShoulder -7.098739 16.129060 23.564793
LeftArm 12.594151 33.802502 -74.466843
LeftForeArm 32.522970 -0.000000 39.034317
LeftHand -7.721586 0.000000 -17.834246
LeftHandThumb1 -26.253704 0.000000 33.147579
RightShoulder -42.662948 -53.754942 28.232064
RightArm 37.392055 -22.089672 67.504562
RightForeArm 45.553449 -0.000000 31.679390
RightHand -8.239333 -0.000000 3.967703
RightHandThumb1 -24.326973 -0.000000 -32.862282
LeftUpLeg -8.698106 53.946487 32.636633
LeftLeg 23.087978 -0.000000 -0.000000
LeftFoot -20.335792 6.541090 -15.239305
LeftToeBase 4.791050 -0.000000 -0.000000
RightUpLeg 41.971480 11.109882 -30.609939
RightLeg 139.850716 -0.000000 -0.000000
RightFoot 37.894949 11.785878 15.950231
RightToeBase -14.464654 -0.000000 0.000000
1160
root 6.723647 38.013717 5.771399 149.987812 -32.617348 -132.965876
Spine 42.922265 -0.587080 2.939344
Head -21.148353 22.167317 19.547931
LeftShoulder -7.149663 16.198417 23.505339
LeftArm 12.561493 34.042339 -74.448918
LeftForeArm 32.523638 -0.000000 38.986353
LeftHand -7.675486 -0.000000 -18.022760
LeftHandThumb1 -26.253704 0.000000 33.147579
RightShoulder -42.637698 -53.766251 28.237360
RightArm 37.385381 -22.308457 67.383354
RightForeArm 45.682306 0.000000 31.736131
RightHand -8.146438 0.000000 4.044969
RightHandThumb1 -24.326973 -0.000000 -32.862282
LeftUpLeg -9.229167 53.994388 32.184144
LeftLeg 23.164599 -0.000000 -0.000000
LeftFoot -20.371635 6.663329 -15.185251
LeftToeBase 4.757729 -0.000000 -0.000000
RightUpLeg 41.925696 10.867893 -30.704420
RightLeg 139.967497 -0.000000 -0.000000
RightFoot 37.883063 11.709713 16.113797
RightToeBase -14.054545 -0.000000 0.000000
1161
root 6.729921 38.007926 5.791549 150.317910 -32.653195 -132.989741
Spine 42.641267 -0.572090 2.879684
Head -21.184458 22.199907 19.474978
LeftShoulder -7.145491 16.217531 23.450187
LeftArm 12.445954 34.281044 -74.476263
LeftForeArm 32.506040 0.000000 38.926675
LeftHand -7.549810 -0.000000 -18.185451
LeftHandThumb1 -26.253704 0.000000 33.147579
RightShoulder -42.637229 -53.797430 28.267408
RightArm 37.364736 -22.483366 67.306229
RightForeArm 46.030963 -0.000000 31.877961
RightHand -8.403716 0.000000 3.659958
RightHandThumb1 -24.326973 -0.000000 -32.862282
LeftUpLeg -9.837043 54.040586 31.668459
LeftLeg 23.255802 -0.000000 -0.000000
LeftFoot -20.418261 6.828839 -15.149856
LeftToeBase 4.740230 -0.000000 -0.000000
RightUpLeg 41.827135 10.665759 -30.783987
RightLeg 140.077222 -0.000000 -0.000000
RightFoot 38.064547 11.785470 16.201951
RightToeBase -14.274207 -0.000000 0.000000
